<svg xmlns="http://www.w3.org/2000/svg" width="193.251" height="37.217" viewBox="0 0 193.251 37.217">
  <g id="clarovideo" transform="translate(-684 98)">
    <path id="Combined_Shape" data-name="Combined Shape" d="M76.817,37.217a9.689,9.689,0,0,1-7.041-3.054,9.79,9.79,0,0,1-3.005-7.247,9.972,9.972,0,0,1,3.005-7.288,9.675,9.675,0,0,1,7-3.017c.046,0,.093,0,.139,0l.111,0a9.95,9.95,0,0,1,7.112,3.017h.014a10.147,10.147,0,0,1,2.959,7.288,10.286,10.286,0,0,1-10.2,10.3ZM73.147,23.06a5.279,5.279,0,0,0-1.6,3.857,5.425,5.425,0,0,0,1.6,3.813,5.278,5.278,0,0,0,7.562,0,5.47,5.47,0,0,0,.049-7.67A5.019,5.019,0,0,0,77.136,21.5c-.076,0-.153,0-.232.007s-.141,0-.213,0A4.836,4.836,0,0,0,73.147,23.06ZM51.74,37.092l-4.887,0V35.062a9.55,9.55,0,0,1-6.29,2.026c-.037,0-.072,0-.109,0a6.293,6.293,0,0,1-3.906-1.366,5.237,5.237,0,0,1-1.641-4.186,5.514,5.514,0,0,1,2.674-5.318,11.879,11.879,0,0,1,4.246-1.28l3.76-.609a1.626,1.626,0,0,0,1.128-1.5,1.752,1.752,0,0,0-.847-1.651,4.337,4.337,0,0,0-1.989-.486c-.139,0-.28.007-.419.019-.083,0-.167,0-.248,0a2.806,2.806,0,0,0-2.341.947,3.2,3.2,0,0,0-.7,1.785H35.282a7.711,7.711,0,0,1,1.408-4.281c1.3-1.718,3.538-2.588,6.654-2.588h.269q.226-.007.451-.007A11.433,11.433,0,0,1,49.3,17.836c1.6.836,2.445,2.51,2.445,4.843V37.092Zm-6.077-9.472-2.44.611a6.51,6.51,0,0,0-2.3.658,2.806,2.806,0,0,0-.47,4.144,2.671,2.671,0,0,0,1.641.565c.032,0,.065,0,.1,0a5.169,5.169,0,0,0,3.054-.986A4.132,4.132,0,0,0,46.6,29.081V27.107Zm9.349,9.46V17.51l4.649.044v2.491a7.832,7.832,0,0,1,3.477-2.774l1.882-.516,1.269-.1.044,4.992-1.5-.095a4.7,4.7,0,0,0-2.676.845,4.586,4.586,0,0,0-1.695,1.882,6.989,6.989,0,0,0-.614,3.436v9.363Zm-27.857,0v-25.5h4.887v25.5ZM3.711,33.316A12.361,12.361,0,0,1,0,24.282,12.188,12.188,0,0,1,3.711,15.3a11.535,11.535,0,0,1,8.875-3.716,11.746,11.746,0,0,1,7.658,2.637,12.6,12.6,0,0,1,4.415,6.726H19.543A8.46,8.46,0,0,0,16.774,17.7a7.624,7.624,0,0,0-9.68,1.035,7.958,7.958,0,0,0,0,11.1,7.5,7.5,0,0,0,5.494,2.306,7.865,7.865,0,0,0,4.186-1.222,8.873,8.873,0,0,0,2.769-3.248h5.117a12.761,12.761,0,0,1-4.415,6.726,12.243,12.243,0,0,1-7.656,2.593l-.218,0A12.034,12.034,0,0,1,3.711,33.316Zm86.4-6.682V22.261h12.924v4.373ZM84.846,14.259,96.639,2.452l3.1,3.107-11.8,11.805Zm-9.534-1.6V0H79.68V12.662Z" transform="translate(684 -98)" fill="#e52a1b"/>
    <path id="Combined_Shape-2" data-name="Combined Shape" d="M35.582,28.108c-.073,0-.144,0-.214,0a6.768,6.768,0,0,1-4.557-1.758c-1.979-1.966-1.979-5.416-1.979-8.19,0-2.749,0-6.175,1.979-8.147a6.66,6.66,0,0,1,4.517-1.762c.064,0,.132,0,.2,0A5.854,5.854,0,0,1,40.261,10.2V1.37H45.1V27.876l-4.713.009V26.068A5.822,5.822,0,0,1,35.94,28.12C35.821,28.12,35.7,28.117,35.582,28.108Zm-1.905-9.945c0,2.948.251,5.593,3.275,5.593,2.758,0,3.315-2.141,3.315-5.593,0-3.422-.554-5.545-3.3-5.545h-.012C33.928,12.618,33.677,15.242,33.677,18.163Zm37.166,7.572c-1.838-1.914-2.2-4.226-2.2-7.569,0-3.324.358-5.618,2.2-7.517a7.942,7.942,0,0,1,5.673-2.4c.1,0,.208,0,.315.006a7.97,7.97,0,0,1,6.028,2.392c1.841,1.911,2.211,4.294,2.211,7.517,0,3.245-.37,5.642-2.211,7.569a8.791,8.791,0,0,1-12.016,0Zm6.132-1.976a3.049,3.049,0,0,0,2.132-.865c1.037-1.034,1.122-2.829,1.122-4.728,0-1.969-.086-3.682-1.122-4.688a3.051,3.051,0,0,0-2.132-.862c-.049,0-.1,0-.144.006s-.095-.006-.144-.006a2.958,2.958,0,0,0-2.092.862c-1.028,1.034-1.113,2.807-1.113,4.688s.086,3.676,1.113,4.728a2.989,2.989,0,0,0,2.092.865c.049,0,.095,0,.144,0S76.926,23.759,76.975,23.759ZM51.592,26.083c-1.835-1.651-2.765-4.315-2.765-7.918,0-6.113,3.236-9.909,8.444-9.909,5.135,0,8.456,3.639,8.456,9.276V19.7H53.6a4.358,4.358,0,0,0,1.177,3.165,4.219,4.219,0,0,0,3.064,1.153c.113.006.229.009.343.009a5.364,5.364,0,0,0,4.046-1.838l2.948,2.862A9.286,9.286,0,0,1,57.8,28.108,8.974,8.974,0,0,1,51.592,26.083Zm2.453-11.789a5.441,5.441,0,0,0-.453,2.089h7.373a5.256,5.256,0,0,0-.44-2.089,3.62,3.62,0,0,0-6.48,0ZM25,27.885H20.181V8.49H25.01v19.4Zm-17.863,0L0,8.49H5.095l3.96,11.991,3.9-11.991h5.1l-7.11,19.4Zm12.722-23.3A3.032,3.032,0,0,1,22.466,0c.043,0,.086,0,.128,0a3.032,3.032,0,0,1,0,6.058c-.043,0-.086,0-.128,0A3.041,3.041,0,0,1,19.863,4.584Z" transform="translate(792.181 -88.903)" fill="#fff"/>
  </g>
</svg>
