<svg id="Íconos_-_Claro_-_Atencion_al_cliente_-_Empresas" data-name="Íconos - Claro - Atencion al cliente - Empresas" xmlns="http://www.w3.org/2000/svg" width="104" height="104" viewBox="0 0 104 104">
  <rect id="Rectángulo_62" data-name="Rectángulo 62" width="104" height="104" fill="none"/>
  <path id="Fill-1" d="M47.048,0A47.048,47.048,0,1,1,0,47.048,47.048,47.048,0,0,1,47.048,0" transform="translate(4.952 4.952)" fill="#e8e8e9"/>
  <path id="Fill-3" d="M66.1,54.576V44.382c0-8.364-22.217-15.16-29.274-15.16S7.556,35.757,7.556,44.382V54.576" transform="translate(15.17 44.472)" fill="#e03224"/>
  <path id="Fill-5" d="M68.573,55.327H65.7V45.133c0-6.8-20.385-13.592-27.706-13.592s-27.967,6.8-27.967,13.592V55.327H6.889V45.133c0-10.455,24.308-16.467,30.842-16.467,6.276,0,30.842,6.273,30.842,16.467Z" transform="translate(14.268 43.72)"/>
  <path id="Fill-7" d="M37.622,40.245l-9.148,6.273a2.748,2.748,0,0,1-3.4,0l-9.41-6.273V23.778H37.884V40.245Z" transform="translate(26.14 37.108)" fill="#fff"/>
  <path id="Fill-9" d="M18.137,40.362l8.625,5.75a1.666,1.666,0,0,0,1.568,0l8.625-5.75V26.248H17.875V40.362Zm9.41,8.887a5.043,5.043,0,0,1-2.614-.784L15,41.93V23.111H40.09V41.93l-9.93,6.8a4.3,4.3,0,0,1-2.614.523Z" transform="translate(25.238 36.206)"/>
  <path id="Fill-11" d="M54.271,24.624c0-9.82-9.82-19.637-21.72-19.637S10.83,15.1,10.83,24.624V39.2a24.5,24.5,0,0,0,5.356,2.679A20.893,20.893,0,0,0,26.9,60.03a.292.292,0,0,1,.3.3,11.01,11.01,0,0,0,11.307,0h.3a21.415,21.415,0,0,0,7.737-7.737,3.23,3.23,0,0,0,1.487.3c4.462,0,6.545-5.356,6.545-5.356V24.624Z" transform="translate(19.6 11.695)" fill="#e8e8e9"/>
  <path id="Fill-13" d="M46.717,27.327c-7.818-1.6-2.6-1.973-9.14-5.7-10.34-5.894-9.036-4.613-14.851-9.357l-8.518,8.518S10.626,30.848,13.9,32.037A20.9,20.9,0,0,0,24.61,50.187a.292.292,0,0,1,.3.3,11.01,11.01,0,0,0,11.307,0h.3a21.415,21.415,0,0,0,7.737-7.737,3.225,3.225,0,0,0,1.487.3c4.462,0-1.513-1.189-1.513-1.189l2.389-7.141Z" transform="translate(21.885 21.541)" fill="#fff"/>
  <path id="Fill-15" d="M56.786,42.909H53.511V26.246a17.686,17.686,0,0,0-5.949-12.5A20.039,20.039,0,0,0,33.278,7.8c-11.3,0-19.935,9.82-19.935,18.448V40.23H10.071V26.246c0-10.413,10.118-22.018,23.508-22.018a24.459,24.459,0,0,1,16.66,6.843,20.973,20.973,0,0,1,6.843,14.878Z" transform="translate(18.571 10.671)"/>
  <path id="Fill-17" d="M11.193,29.336h3.272V16.244H11.193a3.3,3.3,0,0,0-3.272,3.272v6.845a3.258,3.258,0,0,0,3.272,2.974" transform="translate(15.664 26.919)" fill="#5e5e5e"/>
  <path id="Fill-19" d="M11.922,18.929a1.406,1.406,0,0,0-1.487,1.487v7.141a1.279,1.279,0,0,0,1.189,1.189h1.785V18.929Zm5.356,13.092H11.922a4.7,4.7,0,0,1-4.76-4.762V20.119a4.7,4.7,0,0,1,4.76-4.76h5.356Z" transform="translate(14.638 25.724)"/>
  <path id="Fill-21" d="M32.569,29.336H29.3V16.244h3.272a3.3,3.3,0,0,1,3.272,3.272v6.845a3.258,3.258,0,0,1-3.272,2.974" transform="translate(44.573 26.919)" fill="#5e5e5e"/>
  <path id="Fill-23" d="M31.812,28.748H33.6a1.281,1.281,0,0,0,1.189-1.189V20.416a1.594,1.594,0,0,0-1.49-1.485H31.514v9.817Zm2.081,3.272H28.537V15.358h5.356a4.7,4.7,0,0,1,4.762,4.762v7.141a4.892,4.892,0,0,1-4.762,4.76Z" transform="translate(43.546 25.723)"/>
  <path id="Fill-25" d="M30.669,48.422a13.563,13.563,0,0,1-6.545-1.785l-.3-.3a23.481,23.481,0,0,1-11.6-20.233V15.991h3.272V26.106a20.243,20.243,0,0,0,9.82,17.259l-.6,1.785.891-1.487a9.139,9.139,0,0,0,9.525,0A19.608,19.608,0,0,0,44.948,26.4v-4.76h3.275V26.4A23.362,23.362,0,0,1,36.916,46.339a9.332,9.332,0,0,1-6.247,2.083" transform="translate(21.479 26.58)"/>
  <path id="Fill-27" d="M45.093,32.324c-10.118,0-29.457-12.2-29.457-22.91h3.272c0,7.734,16.961,19.339,25.887,19.339Z" transform="translate(26.098 17.684)"/>
  <path id="Fill-29" d="M15.62,22.871l-3.272-.891c1.487-4.762,7.439-10.416,12.2-10.416v3.275c-3.272,0-8.035,4.76-8.926,8.032" transform="translate(21.652 20.591)"/>
  <path id="Fill-31" d="M33.706,32.186H20.316V28.913h13.39a5.88,5.88,0,0,0,5.356-3.57l.593-1.785V21.177H42.93v3.275l-.891,2.081a8.419,8.419,0,0,1-8.333,5.654" transform="translate(32.427 33.592)"/>
  <path id="Fill-33" d="M25.6,30H19.653a1.406,1.406,0,0,1-1.487-1.487V24.939a1.4,1.4,0,0,1,1.487-1.485H25.6a1.4,1.4,0,0,1,1.487,1.485v3.275C27.092,29.4,26.5,30,25.6,30" transform="translate(29.52 36.673)" fill="#5e5e5e"/>
  <path id="Fill-35" d="M26.5,25.968l-5.952.3.3,3.275,5.952-.3V25.968Zm.3,6.843H20.553a3.3,3.3,0,0,1-3.272-3.272v-3.57A3.3,3.3,0,0,1,20.553,22.7H26.8a3.3,3.3,0,0,1,3.272,3.272v3.57A3.3,3.3,0,0,1,26.8,32.81Z" transform="translate(28.321 35.645)"/>
</svg>
