<svg id="Íconos_-_Claro-_Alerta_Información" data-name="Íconos - Claro- Alerta / Información" xmlns="http://www.w3.org/2000/svg" width="54" height="54" viewBox="0 0 54 54">
  <rect id="Rectángulo_93" data-name="Rectángulo 93" width="54" height="54" fill="none"/>
  <g id="Group" transform="translate(11.571 11.664)">
    <ellipse id="Oval" cx="14.887" cy="14.929" rx="14.887" ry="14.929" transform="translate(0.812 0.814)" fill="#fff"/>
    <path id="Shape" d="M16.475,32.263a15.743,15.743,0,1,1,15.7-15.743A15.732,15.732,0,0,1,16.475,32.263Zm0-29.857a14.114,14.114,0,0,0,0,28.229,14.114,14.114,0,0,0,0-28.229Z" transform="translate(-0.776 -0.778)"/>
  </g>
  <path id="Path" d="M.247,27.143c0-.543-.135-1.086-.135-1.764A24.49,24.49,0,0,1,23.525,0V1.493A22.877,22.877,0,0,0,1.736,25.379c0,.543.135,1.086.135,1.629Z" transform="translate(2.48 2.571)" fill="#bcc0c4"/>
  <path id="Path-2" data-name="Path" d="M39.928,35.435l-1.353-.679a22.985,22.985,0,0,0-11.1-31.621l.677-1.357A24.257,24.257,0,0,1,42.77,23.221,24.554,24.554,0,0,1,39.928,35.435Z" transform="translate(8.543 2.964)" fill="#bcc0c4"/>
  <path id="Path-3" data-name="Path" d="M23.782,42.214a24.522,24.522,0,0,1-20.571-11.4L4.564,30A22.5,22.5,0,0,0,24.729,40.586a22.173,22.173,0,0,0,12.586-4.479l.947,1.221a25.037,25.037,0,0,1-13.4,4.75A3.354,3.354,0,0,1,23.782,42.214Z" transform="translate(3.17 9.214)" fill="#bcc0c4"/>
  <path id="Path-4" data-name="Path" d="M10.983,38.179a6.784,6.784,0,0,1-1.083-.95A20.125,20.125,0,0,1,8.818,9l1.218,1.086a18.482,18.482,0,0,0,.947,26.057c.271.271.677.543.947.814Z" transform="translate(3.246 4.565)" fill="#bcc0c4"/>
  <g id="Grupo_13722" data-name="Grupo 13722" transform="translate(24.429 17.045)">
    <g id="Grupo_13722-2" data-name="Grupo 13722" transform="translate(0 15.331)">
      <rect id="Rectángulo_6140" data-name="Rectángulo 6140" width="4.431" height="3.699" rx="1.285" transform="translate(0.719 0.72)" fill="#e03224"/>
      <path id="Trazado_24986" data-name="Trazado 24986" d="M438.352,387.36h-.731a2.569,2.569,0,1,1,0-5.138h.731a2.569,2.569,0,0,1,0,5.138Zm-.731-3.7a1.13,1.13,0,0,0,0,2.26h.731a1.13,1.13,0,1,0,0-2.26Z" transform="translate(-435.052 -382.222)"/>
    </g>
    <g id="Grupo_13723" data-name="Grupo 13723" transform="translate(0)">
      <rect id="Rectángulo_6141" data-name="Rectángulo 6141" width="4.431" height="12.286" rx="0.962" transform="translate(0.719 0.72)" fill="#e03224"/>
      <path id="Trazado_24987" data-name="Trazado 24987" d="M438.817,385.294h-1.661a2.107,2.107,0,0,1-2.1-2.1v-9.517a2.107,2.107,0,0,1,2.1-2.1h1.661a2.106,2.106,0,0,1,2.1,2.1v9.517A2.106,2.106,0,0,1,438.817,385.294Zm-1.661-12.286a.665.665,0,0,0-.665.665v9.517a.665.665,0,0,0,.665.665h1.661a.665.665,0,0,0,.665-.665v-9.517a.665.665,0,0,0-.665-.665Z" transform="translate(-435.052 -371.569)"/>
    </g>
  </g>
</svg>
